<svg width="402" height="37" viewBox="0 0 402 37" fill="none" xmlns="http://www.w3.org/2000/svg">
<rect x="0.5" y="0.5" width="401" height="36" fill="#282C33"/>
<rect x="0.5" y="0.5" width="401" height="36" stroke="#ABB2BF"/>
<rect x="8.5" y="11" width="15" height="15" fill="#C778DD" stroke="#C778DD"/>
<path d="M39.728 12.736C40.4747 12.736 41.104 12.8347 41.616 13.032C42.1333 13.224 42.6133 13.5013 43.056 13.864L42.088 15.016C41.7573 14.7387 41.4027 14.5333 41.024 14.4C40.6453 14.2667 40.2427 14.2 39.816 14.2C39.2667 14.2 38.76 14.3387 38.296 14.616C37.832 14.8933 37.4587 15.344 37.176 15.968C36.8987 16.592 36.76 17.424 36.76 18.464C36.76 19.4827 36.8933 20.304 37.16 20.928C37.4267 21.552 37.792 22.0053 38.256 22.288C38.72 22.5707 39.24 22.712 39.816 22.712C40.408 22.712 40.8987 22.616 41.288 22.424C41.6773 22.2267 42.0213 22.0053 42.32 21.76L43.216 22.904C42.848 23.2613 42.3813 23.5707 41.816 23.832C41.2507 24.088 40.5627 24.216 39.752 24.216C38.8187 24.216 37.9787 23.9973 37.232 23.56C36.4907 23.1173 35.904 22.4693 35.472 21.616C35.0453 20.7627 34.832 19.712 34.832 18.464C34.832 17.2267 35.0533 16.184 35.496 15.336C35.9387 14.4827 36.5307 13.8373 37.272 13.4C38.0133 12.9573 38.832 12.736 39.728 12.736ZM46.8098 15.552V21.456C46.8098 21.9573 46.9084 22.3147 47.1058 22.528C47.3084 22.7413 47.6124 22.848 48.0178 22.848C48.4018 22.848 48.7724 22.7333 49.1298 22.504C49.4871 22.2747 49.7698 21.9947 49.9778 21.664V15.552H51.7698V24H50.2258L50.1138 22.92C49.7991 23.3413 49.4018 23.664 48.9218 23.888C48.4418 24.1067 47.9511 24.216 47.4498 24.216C46.6338 24.216 46.0231 23.992 45.6178 23.544C45.2178 23.0907 45.0178 22.4693 45.0178 21.68V15.552H46.8098ZM54.6915 24V22.72H55.9315V16.824H54.6915V15.552H57.2995L57.6275 17.512C57.9422 16.8027 58.3315 16.264 58.7955 15.896C59.2648 15.5227 59.8675 15.336 60.6035 15.336C60.8542 15.336 61.0782 15.3573 61.2755 15.4C61.4782 15.4373 61.6782 15.488 61.8755 15.552L61.3395 17.088C61.1688 17.04 61.0088 17.0053 60.8595 16.984C60.7102 16.9573 60.5448 16.944 60.3635 16.944C59.7502 16.944 59.2195 17.1733 58.7715 17.632C58.3288 18.0907 57.9795 18.7413 57.7235 19.584V22.72H59.4275V24H54.6915ZM60.2915 18.664V16.584L60.5155 15.552H61.8755L61.5715 18.664H60.2915ZM64.2853 24V22.72H65.5253V16.824H64.2853V15.552H66.8932L67.2213 17.512C67.5359 16.8027 67.9253 16.264 68.3893 15.896C68.8586 15.5227 69.4613 15.336 70.1973 15.336C70.4479 15.336 70.6719 15.3573 70.8693 15.4C71.0719 15.4373 71.2719 15.488 71.4693 15.552L70.9333 17.088C70.7626 17.04 70.6026 17.0053 70.4533 16.984C70.3039 16.9573 70.1386 16.944 69.9573 16.944C69.3439 16.944 68.8133 17.1733 68.3653 17.632C67.9226 18.0907 67.5733 18.7413 67.3173 19.584V22.72H69.0213V24H64.2853ZM69.8853 18.664V16.584L70.1093 15.552H71.4693L71.1653 18.664H69.8853ZM75.287 20.352C75.3243 20.928 75.447 21.4 75.655 21.768C75.863 22.1307 76.135 22.3973 76.471 22.568C76.8123 22.7387 77.1857 22.824 77.591 22.824C78.007 22.824 78.391 22.76 78.743 22.632C79.095 22.504 79.4497 22.3227 79.807 22.088L80.583 23.16C80.1883 23.48 79.727 23.736 79.199 23.928C78.671 24.12 78.1057 24.216 77.503 24.216C76.6283 24.216 75.887 24.0293 75.279 23.656C74.6763 23.2827 74.2177 22.7627 73.903 22.096C73.5883 21.4293 73.431 20.6587 73.431 19.784C73.431 18.936 73.5857 18.1787 73.895 17.512C74.2043 16.84 74.647 16.3093 75.223 15.92C75.799 15.5253 76.487 15.328 77.287 15.328C78.039 15.328 78.6843 15.4987 79.223 15.84C79.767 16.1813 80.1857 16.6667 80.479 17.296C80.7777 17.92 80.927 18.672 80.927 19.552C80.927 19.696 80.9217 19.84 80.911 19.984C80.9057 20.1227 80.8977 20.2453 80.887 20.352H75.287ZM77.303 16.656C76.743 16.656 76.279 16.856 75.911 17.256C75.5483 17.656 75.3377 18.28 75.279 19.128H79.191C79.175 18.3333 79.0043 17.7227 78.679 17.296C78.359 16.8693 77.9003 16.656 77.303 16.656ZM83.3928 24V15.552H84.9368L85.0728 16.648C85.4248 16.216 85.8408 15.888 86.3208 15.664C86.8008 15.44 87.2941 15.328 87.8008 15.328C88.5901 15.328 89.1794 15.5493 89.5688 15.992C89.9634 16.4293 90.1608 17.0453 90.1608 17.84V24H88.3688V18.728C88.3688 18.2373 88.3394 17.8427 88.2808 17.544C88.2221 17.2453 88.1048 17.0293 87.9288 16.896C87.7581 16.7627 87.5021 16.696 87.1608 16.696C86.8888 16.696 86.6301 16.7547 86.3848 16.872C86.1394 16.9893 85.9154 17.144 85.7128 17.336C85.5101 17.5227 85.3341 17.7227 85.1848 17.936V24H83.3928ZM100.043 23.552C99.7332 23.7493 99.3625 23.9093 98.9305 24.032C98.4985 24.1547 98.0478 24.216 97.5785 24.216C96.5972 24.216 95.8505 23.9627 95.3385 23.456C94.8318 22.944 94.5785 22.272 94.5785 21.44V16.856H92.6985V15.552H94.5785V13.664L96.3705 13.448V15.552H99.2185L99.0185 16.856H96.3705V21.424C96.3705 21.8773 96.4825 22.216 96.7065 22.44C96.9358 22.6587 97.3092 22.768 97.8265 22.768C98.1358 22.768 98.4212 22.7307 98.6825 22.656C98.9438 22.5813 99.1812 22.4853 99.3945 22.368L100.043 23.552ZM106.292 12.16V21.696C106.292 22.0853 106.41 22.3627 106.644 22.528C106.884 22.688 107.194 22.768 107.572 22.768C107.818 22.768 108.05 22.7413 108.268 22.688C108.487 22.6347 108.7 22.568 108.908 22.488L109.364 23.736C109.114 23.864 108.804 23.976 108.436 24.072C108.074 24.168 107.658 24.216 107.188 24.216C106.34 24.216 105.679 23.9787 105.204 23.504C104.735 23.024 104.5 22.368 104.5 21.536V13.48H101.948V12.16H106.292ZM119.566 15.552L116.654 24.032C116.435 24.672 116.155 25.2347 115.814 25.72C115.473 26.2107 115.035 26.6053 114.502 26.904C113.969 27.2027 113.307 27.3867 112.518 27.456L112.286 26.112C112.857 26.0213 113.31 25.888 113.646 25.712C113.987 25.5413 114.257 25.3147 114.454 25.032C114.657 24.7493 114.835 24.4053 114.99 24H114.382L111.534 15.552H113.438L115.566 22.752L117.726 15.552H119.566ZM137.97 24H135.73L134.778 18L133.754 24H131.562L130.13 15.552H131.858L132.738 22.888L133.914 16.624H135.706L136.802 22.888L137.682 15.552H139.345L137.97 24ZM144.339 15.328C145.166 15.328 145.862 15.512 146.427 15.88C146.993 16.248 147.419 16.7627 147.707 17.424C148.001 18.0853 148.147 18.864 148.147 19.76C148.147 20.6507 147.998 21.432 147.699 22.104C147.406 22.7707 146.974 23.2907 146.403 23.664C145.838 24.032 145.147 24.216 144.331 24.216C143.515 24.216 142.822 24.0373 142.251 23.68C141.686 23.3173 141.254 22.8027 140.955 22.136C140.662 21.4693 140.515 20.6827 140.515 19.776C140.515 18.896 140.662 18.1227 140.955 17.456C141.254 16.7893 141.689 16.2693 142.259 15.896C142.83 15.5173 143.523 15.328 144.339 15.328ZM144.339 16.72C143.694 16.72 143.209 16.968 142.883 17.464C142.558 17.9547 142.395 18.7253 142.395 19.776C142.395 20.8213 142.555 21.592 142.875 22.088C143.201 22.584 143.686 22.832 144.331 22.832C144.977 22.832 145.459 22.584 145.779 22.088C146.105 21.592 146.267 20.816 146.267 19.76C146.267 18.72 146.107 17.9547 145.787 17.464C145.467 16.968 144.985 16.72 144.339 16.72ZM150.629 24V22.72H151.869V16.824H150.629V15.552H153.237L153.565 17.512C153.88 16.8027 154.269 16.264 154.733 15.896C155.202 15.5227 155.805 15.336 156.541 15.336C156.792 15.336 157.016 15.3573 157.213 15.4C157.416 15.4373 157.616 15.488 157.813 15.552L157.277 17.088C157.106 17.04 156.946 17.0053 156.797 16.984C156.648 16.9573 156.482 16.944 156.301 16.944C155.688 16.944 155.157 17.1733 154.709 17.632C154.266 18.0907 153.917 18.7413 153.661 19.584V22.72H155.365V24H150.629ZM156.229 18.664V16.584L156.453 15.552H157.813L157.509 18.664H156.229ZM167.583 15.552L164.167 19.328L167.943 24H165.751L162.119 19.376L165.495 15.552H167.583ZM161.991 11.96V24H160.199V12.16L161.991 11.96ZM174.353 15.552V22.688H176.649V24H170.033V22.688H172.561V16.864H170.113V15.552H174.353ZM173.105 11.416C173.457 11.416 173.739 11.5227 173.953 11.736C174.171 11.9493 174.281 12.216 174.281 12.536C174.281 12.856 174.171 13.1253 173.953 13.344C173.739 13.5627 173.457 13.672 173.105 13.672C172.763 13.672 172.483 13.5627 172.265 13.344C172.046 13.1253 171.937 12.856 171.937 12.536C171.937 12.216 172.046 11.9493 172.265 11.736C172.483 11.5227 172.763 11.416 173.105 11.416ZM179.33 24V15.552H180.874L181.01 16.648C181.362 16.216 181.778 15.888 182.258 15.664C182.738 15.44 183.232 15.328 183.738 15.328C184.528 15.328 185.117 15.5493 185.506 15.992C185.901 16.4293 186.098 17.0453 186.098 17.84V24H184.306V18.728C184.306 18.2373 184.277 17.8427 184.218 17.544C184.16 17.2453 184.042 17.0293 183.866 16.896C183.696 16.7627 183.44 16.696 183.098 16.696C182.826 16.696 182.568 16.7547 182.322 16.872C182.077 16.9893 181.853 17.144 181.65 17.336C181.448 17.5227 181.272 17.7227 181.122 17.936V24H179.33ZM196.036 14.48L196.516 15.968C196.18 16.08 195.809 16.1547 195.404 16.192C195.004 16.2293 194.556 16.248 194.06 16.248C194.567 16.472 194.948 16.76 195.204 17.112C195.46 17.4587 195.588 17.8853 195.588 18.392C195.588 18.9413 195.455 19.432 195.188 19.864C194.921 20.296 194.54 20.6347 194.044 20.88C193.548 21.1253 192.953 21.248 192.26 21.248C192.015 21.248 191.801 21.2373 191.62 21.216C191.444 21.1947 191.271 21.16 191.1 21.112C190.993 21.1867 190.903 21.288 190.828 21.416C190.759 21.5387 190.724 21.6693 190.724 21.808C190.724 21.9787 190.793 22.128 190.932 22.256C191.076 22.3787 191.359 22.44 191.78 22.44H193.252C193.855 22.44 194.385 22.544 194.844 22.752C195.308 22.9547 195.671 23.2347 195.932 23.592C196.199 23.944 196.332 24.344 196.332 24.792C196.332 25.6347 195.969 26.288 195.244 26.752C194.519 27.216 193.473 27.448 192.108 27.448C191.143 27.448 190.385 27.3493 189.836 27.152C189.287 26.9547 188.9 26.6613 188.676 26.272C188.452 25.8827 188.34 25.4053 188.34 24.84H189.948C189.948 25.1333 190.004 25.376 190.116 25.568C190.233 25.76 190.449 25.904 190.764 26C191.079 26.096 191.532 26.144 192.124 26.144C192.716 26.144 193.185 26.0933 193.532 25.992C193.884 25.896 194.137 25.7547 194.292 25.568C194.452 25.3867 194.532 25.168 194.532 24.912C194.532 24.5707 194.383 24.3067 194.084 24.12C193.785 23.9333 193.385 23.84 192.884 23.84H191.436C190.636 23.84 190.049 23.6773 189.676 23.352C189.308 23.0267 189.124 22.648 189.124 22.216C189.124 21.928 189.204 21.6507 189.364 21.384C189.529 21.1173 189.764 20.8853 190.068 20.688C189.561 20.4213 189.191 20.0987 188.956 19.72C188.727 19.336 188.612 18.872 188.612 18.328C188.612 17.7307 188.761 17.208 189.06 16.76C189.359 16.312 189.772 15.9627 190.3 15.712C190.833 15.4613 191.447 15.336 192.14 15.336C192.817 15.336 193.383 15.3013 193.836 15.232C194.289 15.1573 194.684 15.0533 195.02 14.92C195.361 14.7867 195.7 14.64 196.036 14.48ZM192.156 16.568C191.585 16.568 191.156 16.7307 190.868 17.056C190.58 17.376 190.436 17.7947 190.436 18.312C190.436 18.8453 190.583 19.2747 190.876 19.6C191.175 19.92 191.609 20.08 192.18 20.08C192.708 20.08 193.111 19.9253 193.388 19.616C193.671 19.3067 193.812 18.8667 193.812 18.296C193.812 17.72 193.673 17.288 193.396 17C193.119 16.712 192.705 16.568 192.156 16.568ZM211.496 15.328C212.322 15.328 213.018 15.512 213.584 15.88C214.149 16.248 214.576 16.7627 214.864 17.424C215.157 18.0853 215.304 18.864 215.304 19.76C215.304 20.6507 215.154 21.432 214.856 22.104C214.562 22.7707 214.13 23.2907 213.56 23.664C212.994 24.032 212.304 24.216 211.488 24.216C210.672 24.216 209.978 24.0373 209.408 23.68C208.842 23.3173 208.41 22.8027 208.112 22.136C207.818 21.4693 207.672 20.6827 207.672 19.776C207.672 18.896 207.818 18.1227 208.112 17.456C208.41 16.7893 208.845 16.2693 209.416 15.896C209.986 15.5173 210.68 15.328 211.496 15.328ZM211.496 16.72C210.85 16.72 210.365 16.968 210.04 17.464C209.714 17.9547 209.552 18.7253 209.552 19.776C209.552 20.8213 209.712 21.592 210.032 22.088C210.357 22.584 210.842 22.832 211.488 22.832C212.133 22.832 212.616 22.584 212.936 22.088C213.261 21.592 213.424 20.816 213.424 19.76C213.424 18.72 213.264 17.9547 212.944 17.464C212.624 16.968 212.141 16.72 211.496 16.72ZM217.705 24V15.552H219.249L219.385 16.648C219.737 16.216 220.153 15.888 220.633 15.664C221.113 15.44 221.607 15.328 222.113 15.328C222.903 15.328 223.492 15.5493 223.881 15.992C224.276 16.4293 224.473 17.0453 224.473 17.84V24H222.681V18.728C222.681 18.2373 222.652 17.8427 222.593 17.544C222.535 17.2453 222.417 17.0293 222.241 16.896C222.071 16.7627 221.815 16.696 221.473 16.696C221.201 16.696 220.943 16.7547 220.697 16.872C220.452 16.9893 220.228 17.144 220.025 17.336C219.823 17.5227 219.647 17.7227 219.497 17.936V24H217.705Z" fill="#ABB2BF"/>
<path d="M242.309 16.48C242.309 16.0213 242.221 15.6507 242.045 15.368C241.874 15.08 241.623 14.8693 241.293 14.736C240.962 14.6027 240.565 14.536 240.101 14.536H238.957V18.544H240.165C240.602 18.544 240.978 18.4773 241.293 18.344C241.613 18.2053 241.861 17.984 242.037 17.68C242.218 17.376 242.309 16.976 242.309 16.48ZM244.581 16.464C244.581 17.3227 244.397 18.0267 244.029 18.576C243.666 19.12 243.157 19.5227 242.501 19.784C241.845 20.04 241.087 20.168 240.229 20.168H238.957V24H236.765V12.936H240.021C241.455 12.936 242.573 13.2267 243.373 13.808C244.178 14.3893 244.581 15.2747 244.581 16.464ZM249.871 15.288C250.713 15.288 251.428 15.472 252.015 15.84C252.601 16.208 253.047 16.728 253.351 17.4C253.66 18.0667 253.815 18.848 253.815 19.744C253.815 20.6613 253.66 21.456 253.351 22.128C253.041 22.8 252.593 23.32 252.007 23.688C251.42 24.056 250.705 24.24 249.863 24.24C249.025 24.24 248.311 24.0613 247.719 23.704C247.132 23.3413 246.684 22.8267 246.375 22.16C246.065 21.488 245.911 20.688 245.911 19.76C245.911 18.8747 246.065 18.096 246.375 17.424C246.684 16.752 247.135 16.2293 247.727 15.856C248.319 15.4773 249.033 15.288 249.871 15.288ZM249.871 16.88C249.279 16.88 248.836 17.112 248.543 17.576C248.255 18.04 248.111 18.768 248.111 19.76C248.111 20.7627 248.255 21.496 248.543 21.96C248.831 22.4187 249.271 22.648 249.863 22.648C250.455 22.648 250.895 22.4187 251.183 21.96C251.471 21.496 251.615 20.7573 251.615 19.744C251.615 18.7573 251.471 18.0347 251.183 17.576C250.895 17.112 250.457 16.88 249.871 16.88ZM256.024 24V22.536H257.216V16.984H256.024V15.528H258.824L259.216 17.472C259.526 16.752 259.915 16.2107 260.384 15.848C260.854 15.48 261.443 15.296 262.152 15.296C262.424 15.296 262.664 15.3173 262.872 15.36C263.086 15.4027 263.288 15.4587 263.48 15.528L262.848 17.304C262.683 17.2613 262.526 17.2293 262.376 17.208C262.227 17.1813 262.059 17.168 261.872 17.168C261.286 17.168 260.774 17.3973 260.336 17.856C259.904 18.3093 259.568 18.9253 259.328 19.704V22.536H261.016V24H256.024ZM261.696 18.832V16.584L261.984 15.528H263.48L263.104 18.832H261.696ZM272.85 23.528C272.535 23.736 272.154 23.9067 271.706 24.04C271.258 24.1733 270.773 24.24 270.25 24.24C269.215 24.24 268.437 23.9733 267.914 23.44C267.391 22.9013 267.13 22.1867 267.13 21.296V17.024H265.29V15.528H267.13V13.664L269.242 13.408V15.528H272.042L271.826 17.024H269.242V21.288C269.242 21.7253 269.349 22.0453 269.562 22.248C269.775 22.4507 270.119 22.552 270.594 22.552C270.898 22.552 271.175 22.5173 271.426 22.448C271.682 22.3733 271.914 22.28 272.122 22.168L272.85 23.528ZM280.388 11.92C280.953 11.92 281.454 11.9653 281.892 12.056C282.329 12.1467 282.726 12.2693 283.084 12.424L282.476 13.848C282.193 13.7307 281.897 13.6453 281.588 13.592C281.278 13.5387 280.969 13.512 280.66 13.512C280.126 13.512 279.737 13.6133 279.492 13.816C279.252 14.0133 279.132 14.3307 279.132 14.768V16.104H281.932L281.7 17.616H279.132V24H277.028V17.616H275.164V16.104H277.028V14.72C277.028 14.1707 277.161 13.688 277.428 13.272C277.694 12.8507 278.078 12.52 278.58 12.28C279.086 12.04 279.689 11.92 280.388 11.92ZM288.246 15.288C289.088 15.288 289.803 15.472 290.39 15.84C290.976 16.208 291.422 16.728 291.726 17.4C292.035 18.0667 292.19 18.848 292.19 19.744C292.19 20.6613 292.035 21.456 291.726 22.128C291.416 22.8 290.968 23.32 290.382 23.688C289.795 24.056 289.08 24.24 288.238 24.24C287.4 24.24 286.686 24.0613 286.094 23.704C285.507 23.3413 285.059 22.8267 284.75 22.16C284.44 21.488 284.286 20.688 284.286 19.76C284.286 18.8747 284.44 18.096 284.75 17.424C285.059 16.752 285.51 16.2293 286.102 15.856C286.694 15.4773 287.408 15.288 288.246 15.288ZM288.246 16.88C287.654 16.88 287.211 17.112 286.918 17.576C286.63 18.04 286.486 18.768 286.486 19.76C286.486 20.7627 286.63 21.496 286.918 21.96C287.206 22.4187 287.646 22.648 288.238 22.648C288.83 22.648 289.27 22.4187 289.558 21.96C289.846 21.496 289.99 20.7573 289.99 19.744C289.99 18.7573 289.846 18.0347 289.558 17.576C289.27 17.112 288.832 16.88 288.246 16.88ZM298.351 12.144V21.536C298.351 21.904 298.458 22.1653 298.671 22.32C298.89 22.4747 299.183 22.552 299.551 22.552C299.781 22.552 300.002 22.528 300.215 22.48C300.429 22.4267 300.631 22.3627 300.823 22.288L301.343 23.728C301.077 23.8613 300.751 23.9787 300.367 24.08C299.989 24.1867 299.549 24.24 299.047 24.24C298.125 24.24 297.426 23.976 296.951 23.448C296.477 22.92 296.239 22.208 296.239 21.312V13.64H293.703V12.144H298.351ZM308.785 15.528V22.504H311.017V24H304.193V22.504H306.673V17.024H304.273V15.528H308.785ZM307.417 11.256C307.806 11.256 308.121 11.376 308.361 11.616C308.606 11.856 308.729 12.1547 308.729 12.512C308.729 12.8693 308.606 13.1707 308.361 13.416C308.121 13.656 307.806 13.776 307.417 13.776C307.028 13.776 306.71 13.656 306.465 13.416C306.22 13.1707 306.097 12.8693 306.097 12.512C306.097 12.1547 306.22 11.856 306.465 11.616C306.71 11.376 307.028 11.256 307.417 11.256ZM317.027 15.288C317.869 15.288 318.584 15.472 319.171 15.84C319.757 16.208 320.203 16.728 320.507 17.4C320.816 18.0667 320.971 18.848 320.971 19.744C320.971 20.6613 320.816 21.456 320.507 22.128C320.197 22.8 319.749 23.32 319.163 23.688C318.576 24.056 317.861 24.24 317.019 24.24C316.181 24.24 315.467 24.0613 314.875 23.704C314.288 23.3413 313.84 22.8267 313.531 22.16C313.221 21.488 313.067 20.688 313.067 19.76C313.067 18.8747 313.221 18.096 313.531 17.424C313.84 16.752 314.291 16.2293 314.883 15.856C315.475 15.4773 316.189 15.288 317.027 15.288ZM317.027 16.88C316.435 16.88 315.992 17.112 315.699 17.576C315.411 18.04 315.267 18.768 315.267 19.76C315.267 20.7627 315.411 21.496 315.699 21.96C315.987 22.4187 316.427 22.648 317.019 22.648C317.611 22.648 318.051 22.4187 318.339 21.96C318.627 21.496 318.771 20.7573 318.771 19.744C318.771 18.7573 318.627 18.0347 318.339 17.576C318.051 17.112 317.613 16.88 317.027 16.88Z" fill="white"/>
</svg>
