<svg width="164" height="65" viewBox="0 0 164 65" fill="none" xmlns="http://www.w3.org/2000/svg">
<rect x="0.5" y="0.5" width="163" height="64" stroke="#ABB2BF"/>
<path d="M19.388 34.364V32.612H29.012V34.364H19.388ZM56.8213 32.66C56.8213 31.22 56.6693 30.068 56.3653 29.204C56.0613 28.34 55.6613 27.692 55.1653 27.26C54.6693 26.828 54.1253 26.54 53.5333 26.396C52.9493 26.252 52.3733 26.18 51.8053 26.18H49.8613V39.332H51.8293C52.4213 39.332 53.0093 39.24 53.5933 39.056C54.1853 38.864 54.7253 38.528 55.2133 38.048C55.7013 37.56 56.0893 36.884 56.3773 36.02C56.6733 35.148 56.8213 34.028 56.8213 32.66ZM59.0413 32.66C59.0413 34.036 58.8933 35.212 58.5973 36.188C58.3093 37.156 57.9133 37.956 57.4093 38.588C56.9053 39.22 56.3293 39.712 55.6813 40.064C55.0413 40.408 54.3653 40.652 53.6533 40.796C52.9493 40.932 52.2573 41 51.5773 41H47.7853V24.476H51.3133C52.2813 24.476 53.2213 24.584 54.1333 24.8C55.0533 25.016 55.8813 25.416 56.6173 26C57.3613 26.576 57.9493 27.4 58.3813 28.472C58.8213 29.544 59.0413 30.94 59.0413 32.66ZM62.7039 41V39.452H64.6719V29.912H62.7039V28.364H66.2079L66.5799 31.352C67.0679 30.312 67.6599 29.508 68.3559 28.94C69.0519 28.372 69.9719 28.088 71.1159 28.088C71.4679 28.088 71.7799 28.116 72.0519 28.172C72.3319 28.22 72.6159 28.284 72.9039 28.364L72.3159 30.164C72.0519 30.092 71.8119 30.04 71.5959 30.008C71.3799 29.968 71.1319 29.948 70.8519 29.948C69.8839 29.948 69.0519 30.292 68.3559 30.98C67.6599 31.668 67.1039 32.708 66.6879 34.1V39.452H69.2559V41H62.7039ZM70.9599 32.636V29.888L71.1639 28.364H72.9039L72.6159 32.636H70.9599ZM79.6385 39.152C79.6385 38.76 79.7305 38.408 79.9145 38.096C80.0985 37.776 80.3465 37.524 80.6585 37.34C80.9785 37.148 81.3385 37.052 81.7385 37.052C82.1465 37.052 82.5105 37.148 82.8305 37.34C83.1505 37.524 83.4025 37.776 83.5865 38.096C83.7705 38.408 83.8625 38.76 83.8625 39.152C83.8625 39.544 83.7705 39.904 83.5865 40.232C83.4025 40.552 83.1505 40.808 82.8305 41C82.5105 41.184 82.1465 41.276 81.7385 41.276C81.3385 41.276 80.9785 41.184 80.6585 41C80.3465 40.808 80.0985 40.552 79.9145 40.232C79.7305 39.904 79.6385 39.544 79.6385 39.152ZM117.636 24.476L115.116 41H112.38L110.484 28.532L108.576 41H105.78L103.452 24.476H105.54L107.304 38.708L109.284 26.396H111.84L113.724 38.708L115.704 24.476H117.636ZM122.162 23.084V30.092C122.658 29.428 123.266 28.932 123.986 28.604C124.714 28.268 125.45 28.1 126.194 28.1C127.426 28.1 128.326 28.428 128.894 29.084C129.462 29.74 129.746 30.652 129.746 31.82V41H127.73V31.868C127.73 31.108 127.554 30.556 127.202 30.212C126.85 29.86 126.298 29.684 125.546 29.684C125.066 29.684 124.61 29.792 124.178 30.008C123.746 30.224 123.358 30.492 123.014 30.812C122.67 31.132 122.386 31.46 122.162 31.796V41H120.146V23.3L122.162 23.084ZM139.349 28.1C140.541 28.1 141.537 28.372 142.337 28.916C143.145 29.452 143.749 30.212 144.149 31.196C144.557 32.18 144.761 33.34 144.761 34.676C144.761 35.964 144.553 37.104 144.137 38.096C143.721 39.088 143.109 39.868 142.301 40.436C141.501 40.996 140.509 41.276 139.325 41.276C138.141 41.276 137.145 41.004 136.337 40.46C135.529 39.916 134.917 39.152 134.501 38.168C134.093 37.176 133.889 36.02 133.889 34.7C133.889 33.396 134.097 32.248 134.513 31.256C134.929 30.264 135.541 29.492 136.349 28.94C137.165 28.38 138.165 28.1 139.349 28.1ZM139.349 29.744C138.261 29.744 137.437 30.148 136.877 30.956C136.325 31.756 136.049 33.004 136.049 34.7C136.049 36.364 136.321 37.6 136.865 38.408C137.417 39.216 138.237 39.62 139.325 39.62C140.413 39.62 141.229 39.216 141.773 38.408C142.325 37.6 142.601 36.356 142.601 34.676C142.601 32.996 142.329 31.756 141.785 30.956C141.241 30.148 140.429 29.744 139.349 29.744Z" fill="white"/>
</svg>
