<svg width="712" height="173" viewBox="0 0 712 173" fill="none" xmlns="http://www.w3.org/2000/svg">
<rect x="0.5" y="14.5" width="711" height="94" fill="#282C33"/>
<rect x="0.5" y="14.5" width="711" height="94" stroke="#ABB2BF"/>
<rect width="41.472" height="28.704" transform="translate(11)" fill="#282C33"/>
<path d="M29.56 19.616C29.56 21.0453 29.0373 22.2507 27.992 23.232C26.968 24.2133 25.72 24.704 24.248 24.704C22.7333 24.704 21.4747 24.2133 20.472 23.232C19.4907 22.2507 19 21.0453 19 19.616C19 18.9333 19.096 18.208 19.288 17.44C19.48 16.672 19.864 15.68 20.44 14.464L25.4 4H30.2L27.544 15.584C28.1413 16.0107 28.6213 16.576 28.984 17.28C29.368 17.9627 29.56 18.7413 29.56 19.616ZM43.8 19.616C43.8 21.0453 43.2773 22.2507 42.232 23.232C41.1867 24.2133 39.9387 24.704 38.488 24.704C37.016 24.704 35.768 24.2133 34.744 23.232C33.7413 22.2507 33.24 21.0453 33.24 19.616C33.24 18.9333 33.336 18.208 33.528 17.44C33.72 16.672 34.1147 15.68 34.712 14.464L39.704 4H44.472L41.784 15.584C42.4027 16.0107 42.8933 16.576 43.256 17.28C43.6187 17.9627 43.8 18.7413 43.8 19.616Z" fill="#ABB2BF"/>
<rect x="548.5" y="108.5" width="163" height="64" stroke="#ABB2BF"/>
<path d="M567.388 142.364V140.612H577.012V142.364H567.388ZM604.821 140.66C604.821 139.22 604.669 138.068 604.365 137.204C604.061 136.34 603.661 135.692 603.165 135.26C602.669 134.828 602.125 134.54 601.533 134.396C600.949 134.252 600.373 134.18 599.805 134.18H597.861V147.332H599.829C600.421 147.332 601.009 147.24 601.593 147.056C602.185 146.864 602.725 146.528 603.213 146.048C603.701 145.56 604.089 144.884 604.377 144.02C604.673 143.148 604.821 142.028 604.821 140.66ZM607.041 140.66C607.041 142.036 606.893 143.212 606.597 144.188C606.309 145.156 605.913 145.956 605.409 146.588C604.905 147.22 604.329 147.712 603.681 148.064C603.041 148.408 602.365 148.652 601.653 148.796C600.949 148.932 600.257 149 599.577 149H595.785V132.476H599.313C600.281 132.476 601.221 132.584 602.133 132.8C603.053 133.016 603.881 133.416 604.617 134C605.361 134.576 605.949 135.4 606.381 136.472C606.821 137.544 607.041 138.94 607.041 140.66ZM610.704 149V147.452H612.672V137.912H610.704V136.364H614.208L614.58 139.352C615.068 138.312 615.66 137.508 616.356 136.94C617.052 136.372 617.972 136.088 619.116 136.088C619.468 136.088 619.78 136.116 620.052 136.172C620.332 136.22 620.616 136.284 620.904 136.364L620.316 138.164C620.052 138.092 619.812 138.04 619.596 138.008C619.38 137.968 619.132 137.948 618.852 137.948C617.884 137.948 617.052 138.292 616.356 138.98C615.66 139.668 615.104 140.708 614.688 142.1V147.452H617.256V149H610.704ZM618.96 140.636V137.888L619.164 136.364H620.904L620.616 140.636H618.96ZM627.639 147.152C627.639 146.76 627.731 146.408 627.915 146.096C628.099 145.776 628.347 145.524 628.659 145.34C628.979 145.148 629.339 145.052 629.739 145.052C630.147 145.052 630.511 145.148 630.831 145.34C631.151 145.524 631.403 145.776 631.587 146.096C631.771 146.408 631.863 146.76 631.863 147.152C631.863 147.544 631.771 147.904 631.587 148.232C631.403 148.552 631.151 148.808 630.831 149C630.511 149.184 630.147 149.276 629.739 149.276C629.339 149.276 628.979 149.184 628.659 149C628.347 148.808 628.099 148.552 627.915 148.232C627.731 147.904 627.639 147.544 627.639 147.152ZM665.636 132.476L663.116 149H660.38L658.484 136.532L656.576 149H653.78L651.452 132.476H653.54L655.304 146.708L657.284 134.396H659.84L661.724 146.708L663.704 132.476H665.636ZM670.162 131.084V138.092C670.658 137.428 671.266 136.932 671.986 136.604C672.714 136.268 673.45 136.1 674.194 136.1C675.426 136.1 676.326 136.428 676.894 137.084C677.462 137.74 677.746 138.652 677.746 139.82V149H675.73V139.868C675.73 139.108 675.554 138.556 675.202 138.212C674.85 137.86 674.298 137.684 673.546 137.684C673.066 137.684 672.61 137.792 672.178 138.008C671.746 138.224 671.358 138.492 671.014 138.812C670.67 139.132 670.386 139.46 670.162 139.796V149H668.146V131.3L670.162 131.084ZM687.349 136.1C688.541 136.1 689.537 136.372 690.337 136.916C691.145 137.452 691.749 138.212 692.149 139.196C692.557 140.18 692.761 141.34 692.761 142.676C692.761 143.964 692.553 145.104 692.137 146.096C691.721 147.088 691.109 147.868 690.301 148.436C689.501 148.996 688.509 149.276 687.325 149.276C686.141 149.276 685.145 149.004 684.337 148.46C683.529 147.916 682.917 147.152 682.501 146.168C682.093 145.176 681.889 144.02 681.889 142.7C681.889 141.396 682.097 140.248 682.513 139.256C682.929 138.264 683.541 137.492 684.349 136.94C685.165 136.38 686.165 136.1 687.349 136.1ZM687.349 137.744C686.261 137.744 685.437 138.148 684.877 138.956C684.325 139.756 684.049 141.004 684.049 142.7C684.049 144.364 684.321 145.6 684.865 146.408C685.417 147.216 686.237 147.62 687.325 147.62C688.413 147.62 689.229 147.216 689.773 146.408C690.325 145.6 690.601 144.356 690.601 142.676C690.601 140.996 690.329 139.756 689.785 138.956C689.241 138.148 688.429 137.744 687.349 137.744Z" fill="white"/>
<rect width="41.472" height="28.704" transform="translate(654 94)" fill="#282C33"/>
<path d="M672.56 113.616C672.56 115.045 672.037 116.251 670.992 117.232C669.968 118.213 668.72 118.704 667.248 118.704C665.733 118.704 664.475 118.213 663.472 117.232C662.491 116.251 662 115.045 662 113.616C662 112.933 662.096 112.208 662.288 111.44C662.48 110.672 662.864 109.68 663.44 108.464L668.4 98H673.2L670.544 109.584C671.141 110.011 671.621 110.576 671.984 111.28C672.368 111.963 672.56 112.741 672.56 113.616ZM686.8 113.616C686.8 115.045 686.277 116.251 685.232 117.232C684.187 118.213 682.939 118.704 681.488 118.704C680.016 118.704 678.768 118.213 677.744 117.232C676.741 116.251 676.24 115.045 676.24 113.616C676.24 112.933 676.336 112.208 676.528 111.44C676.72 110.672 677.115 109.68 677.712 108.464L682.704 98H687.472L684.784 109.584C685.403 110.011 685.893 110.576 686.256 111.28C686.619 111.963 686.8 112.741 686.8 113.616Z" fill="#ABB2BF"/>
</svg>
