<svg width="154" height="156" viewBox="0 0 154 156" fill="none" xmlns="http://www.w3.org/2000/svg">
<path fill-rule="evenodd" clip-rule="evenodd" d="M152.019 154.019H153.019V153.019V117.25V114.269V78.5V39.75V4C153.019 1.79086 151.228 0 149.019 0H113.269H75.5192C74.4147 0 73.5192 0.895428 73.5192 2V38.75C73.5192 39.8546 74.4147 40.75 75.5192 40.75H112.269V78.5V114.269V117.25V153.019V154.019H113.269H152.019ZM74.5192 2C74.5192 1.44771 74.9669 1 75.5192 1H113.269H149.019C150.676 1 152.019 2.34315 152.019 4V39.75V78.5V114.269V117.25V152.019V153.019H151.019H114.269H113.269V152.019V117.25V114.269V78.5V40.75V39.75H112.269H75.5192C74.9669 39.75 74.5192 39.3023 74.5192 38.75V2ZM37.75 63.5962V64.5962H38.75H67.5769H77.5H105.308C105.86 64.5962 106.308 65.0439 106.308 65.5962V100.346C106.308 100.898 105.86 101.346 105.308 101.346H77.5H67.5769H38.75H37.75V102.346V117.25V155H1V117.25V78.5V42.75C1 41.6454 1.89543 40.75 3 40.75H37.75V63.5962ZM38.75 156V155V117.25V103.346V102.346H39.75H67.5769H77.5H105.308C106.412 102.346 107.308 101.451 107.308 100.346V65.5962C107.308 64.4916 106.412 63.5962 105.308 63.5962H77.5H67.5769H39.75H38.75V62.5962V40.75C38.75 40.1977 38.3023 39.75 37.75 39.75H3C1.34315 39.75 0 41.0931 0 42.75V78.5V117.25V155V156H1H37.75H38.75Z" fill="#C778DD"/>
</svg>
